<svg xmlns="http://www.w3.org/2000/svg" viewBox="0 0 1069.53 1069.53"><title>图标</title><g id="图层_2" data-name="图层 2"><rect width="1069.53" height="1069.53"/><path class="cls-1" style="fill: #f95553" d="M798.51,169.84V211l-39.83-40.52a58.29,58.29,0,0,1,39.83-.63Z" transform="translate(34.89 23.48)"/><path class="cls-2" style="fill:#ff770f" d="M754.09,172.45l29.1,29.1-56.82-.5a58.4,58.4,0,0,1,27.72-28.6Z" transform="translate(34.89 23.48)"/><path class="cls-3" style="fill:#ffc714" d="M724.53,205.7h41.15l-40.52,39.83a58.29,58.29,0,0,1-.63-39.83Z" transform="translate(34.89 23.48)"/><path class="cls-4" style="fill:#9ccf21" d="M727.14,250.11l29.1-29.1-.49,56.82a58.36,58.36,0,0,1-28.61-27.72Z" transform="translate(34.89 23.48)"/><path class="cls-5" style="fill:#68cf20" d="M760.39,279.67V238.52L800.22,279a58.29,58.29,0,0,1-39.83.63Z" transform="translate(34.89 23.48)"/><path class="cls-6" style="fill:#01affe" d="M804.8,277.06,775.7,248l56.82.5a58.29,58.29,0,0,1-27.72,28.6Z" transform="translate(34.89 23.48)"/><path class="cls-7" style="fill:#5283f3" d="M834.36,243.81H793.21L833.74,204a58.37,58.37,0,0,1,.62,39.83Z" transform="translate(34.89 23.48)"/><path class="cls-8" style="fill:#6466f1" d="M831.76,199.4l-29.1,29.1.49-56.82a58.36,58.36,0,0,1,28.61,27.72Z" transform="translate(34.89 23.48)"/></g><g id="图层_3" data-name="图层 3"><text class="cls-9" style="font-size: 200px; font-family: Ravie; fill:#fff" transform="translate(759.71 476.12)">I</text><text class="cls-10" style="font-size: 700px; font-family: Broadway; fill:#fff"  transform="translate(153.25 818.61)">M</text></g></svg>